<svg xmlns="http://www.w3.org/2000/svg" xmlns:xlink="http://www.w3.org/1999/xlink" viewBox="0 0 1080 1080" width="1080" height="1080" preserveAspectRatio="xMidYMid meet" style="width: 100%; height: 100%; transform: translate3d(0px, 0px, 0px); content-visibility: visible;"><defs><clipPath id="__lottie_element_128"><rect width="1080" height="1080" x="0" y="0"></rect></clipPath></defs><g clip-path="url(#__lottie_element_128)"><g transform="matrix(1,0,0,1,177,204)" opacity="0.5" style="display: block;"><g opacity="1" transform="matrix(1,0,0,1,360,319.5)"><path fill="rgb(127,94,222)" fill-opacity="1" d=" M347.052490234375,22.12424087524414 C334.1084899902344,266.3382263183594 256.1925048828125,287.9234924316406 48.526512145996094,366.9674987792969 C-206.31248474121094,463.9674987792969 -384.03668212890625,260.99945068359375 -332.11749267578125,14.808521270751953 C-293.75579833984375,-172.72512817382812 -162.157470703125,-457.39501953125 135.92352294921875,-321.39501953125 C318.4935302734375,-238.09701538085938 362.052490234375,-260.8757629394531 347.052490234375,22.12424087524414z"></path></g></g><g transform="matrix(1,0,0,1,177,204)" opacity="0.5" style="display: block;"><g opacity="1" transform="matrix(1,0,0,1,360,319.5)"><path fill="rgb(127,94,222)" fill-opacity="1" d=" M368.80499267578125,52.3675422668457 C359.3073425292969,296.672607421875 207.12306213378906,283.272705078125 -0.9409878849983215,361.239990234375 C-238.2232208251953,450.44793701171875 -464.2450256347656,234.34498596191406 -364.260009765625,-32.85151290893555 C-296.59173583984375,-219.7110137939453 -252.97499084472656,-394.1875 40.84601974487305,-291.2024841308594 C228.18801879882812,-227.81170654296875 379.8112487792969,-200.2927703857422 368.80499267578125,52.3675422668457z"></path></g></g><g transform="matrix(0.9121845960617065,0,0,0.9121845960617065,263.0726623535156,270.0726623535156)" opacity="1" style="display: block;"><g opacity="1" transform="matrix(1,0,0,1,299.75,299.75)"><path fill="rgb(127,94,222)" fill-opacity="1" d=" M0,-299.5 C165.40899658203125,-299.5 299.5,-165.40899658203125 299.5,0 C299.5,165.40899658203125 165.40899658203125,299.5 0,299.5 C-165.40899658203125,299.5 -299.5,165.40899658203125 -299.5,0 C-299.5,-165.40899658203125 -165.40899658203125,-299.5 0,-299.5z"></path></g></g><g transform="matrix(1.1415719985961914,0,0,1.1415719985961914,470.3070983886719,455.701171875)" opacity="1" style="display: block;"><g opacity="1" transform="matrix(1,0,0,1,57.54600143432617,108.5459976196289)"><path fill="rgb(255,255,255)" fill-opacity="1" d=" M7.994999885559082,21.788999557495117 C7.994999885559082,21.788999557495117 7.994999885559082,32.19599914550781 7.994999885559082,32.19599914550781 C7.994999885559082,36.50600051879883 4.414999961853027,40.000999450683594 0,40.000999450683594 C-4.415999889373779,40.000999450683594 -7.994999885559082,36.50600051879883 -7.994999885559082,32.19599914550781 C-7.994999885559082,32.19599914550781 -7.994999885559082,21.788999557495117 -7.994999885559082,21.788999557495117 C-7.994999885559082,21.788999557495117 -7.994999885559082,21.249000549316406 -7.994999885559082,21.249000549316406 C-35.854000091552734,17.451000213623047 -57.29600143432617,-5.9029998779296875 -57.29600143432617,-34.14699935913086 C-57.29600143432617,-36.0989990234375 -56.09700012207031,-40.000999450683594 -51.29999923706055,-40.000999450683594 C-46.50299835205078,-40.000999450683594 -45.30400085449219,-36.0989990234375 -45.30400085449219,-34.14699935913086 C-45.30400085449219,-9.720999717712402 -25.020999908447266,10.081000328063965 0,10.081000328063965 C8.190999984741211,10.081000328063965 15.875,7.959000110626221 22.5049991607666,4.247000217437744 C30.393999099731445,-0.17000000178813934 36.792999267578125,-6.8379998207092285 40.78099822998047,-14.859999656677246 C43.67900085449219,-20.68899917602539 45.30400085449219,-27.232999801635742 45.30400085449219,-34.14699935913086 C45.30400085449219,-36.0989990234375 46.50299835205078,-40.000999450683594 51.29999923706055,-40.000999450683594 C56.09700012207031,-40.000999450683594 57.29600143432617,-36.0989990234375 57.29600143432617,-34.14699935913086 C57.29600143432617,-23.969999313354492 54.512001037597656,-14.427000045776367 49.645999908447266,-6.204999923706055 C44.49599838256836,2.496999979019165 37.01499938964844,9.718000411987305 28.035999298095703,14.645999908447266 C21.95599937438965,17.982999801635742 15.1899995803833,20.26799964904785 7.994999885559082,21.249000549316406 C7.994999885559082,21.249000549316406 7.994999885559082,21.788999557495117 7.994999885559082,21.788999557495117z"></path></g><g opacity="1" transform="matrix(1,0,0,1,57.55500030517578,52.13100051879883)"><path fill="rgb(255,255,255)" fill-opacity="1" d=" M-0.008999999612569809,-51.88100051879883 C15.444999694824219,-51.88100051879883 27.972999572753906,-39.650001525878906 27.972999572753906,-24.562999725341797 C27.972999572753906,-24.562999725341797 27.972999572753906,25.558000564575195 27.972999572753906,25.558000564575195 C27.437000274658203,40.183998107910156 15.121999740600586,51.88100051879883 0.008999999612569809,51.88100051879883 C-15.444999694824219,51.88100051879883 -27.972999572753906,39.650001525878906 -27.972999572753906,24.562999725341797 C-27.972999572753906,24.562999725341797 -27.972999572753906,-25.558000564575195 -27.972999572753906,-25.558000564575195 C-27.437000274658203,-40.183998107910156 -15.121999740600586,-51.88100051879883 -0.008999999612569809,-51.88100051879883z"></path></g></g></g></svg>